<?xml version="1.0" standalone="no"?>
<!DOCTYPE svg PUBLIC "-//W3C//DTD SVG 20010904//EN"
 "http://www.w3.org/TR/2001/REC-SVG-20010904/DTD/svg10.dtd">
<svg version="1.0" xmlns="http://www.w3.org/2000/svg"
 width="1024.000000pt" height="1024.000000pt" viewBox="0 0 1024.000000 1024.000000"
 preserveAspectRatio="xMidYMid meet">
<metadata>
Created by potrace 1.11, written by Peter Selinger 2001-2013
</metadata>
<g transform="translate(0.000000,1024.000000) scale(0.100000,-0.100000)"
fill="#000000" stroke="none">
<path d="M4715 10229 c-1714 -145 -3222 -1110 -4062 -2599 -349 -620 -551
-1260 -635 -2020 -17 -155 -17 -825 0 -980 74 -665 228 -1207 507 -1775 346
-705 881 -1353 1510 -1825 802 -602 1715 -944 2725 -1021 226 -17 717 -7 938
20 573 69 1069 208 1573 441 1492 690 2566 2061 2879 3672 70 366 95 662 87
1078 -6 310 -12 395 -48 645 -262 1812 -1497 3363 -3209 4030 -414 161 -847
267 -1312 321 -160 18 -788 27 -953 13z m750 -429 c634 -54 1203 -213 1765
-495 1116 -558 1941 -1515 2340 -2715 166 -499 240 -952 240 -1470 0 -518 -78
-989 -244 -1485 -245 -727 -642 -1360 -1185 -1887 -480 -467 -1091 -839 -1744
-1063 -684 -235 -1395 -309 -2102 -219 -1049 134 -2047 631 -2780 1386 -209
214 -364 407 -530 657 -434 655 -690 1368 -777 2166 -17 161 -17 730 0 890
136 1232 740 2385 1642 3136 769 640 1708 1019 2735 1102 98 8 531 6 640 -3z"/>
<path d="M3842 8178 c-48 -101 -153 -319 -232 -485 l-145 -303 -1047 0 -1048
0 0 -2280 0 -2280 3775 0 3775 0 0 2280 0 2280 -1050 2 -1050 3 -232 483 -231
482 -1214 0 -1213 0 -88 -182z m1918 -218 l0 -210 -620 0 -620 0 0 210 0 210
620 0 620 0 0 -210z m2331 -1003 l63 -279 43 -29 c77 -53 126 -138 138 -242
l7 -58 218 -202 c120 -111 217 -203 216 -204 -1 -2 -129 36 -284 84 l-282 86
-60 -27 c-91 -41 -217 -36 -285 10 -11 8 -27 14 -36 14 -10 0 -140 -38 -290
-85 -150 -46 -274 -83 -276 -81 -1 1 96 93 216 204 l218 202 6 58 c9 101 68
200 151 251 32 20 32 22 96 306 35 157 67 282 71 278 3 -5 35 -133 70 -286z
m-2648 133 c827 -122 1503 -759 1672 -1577 136 -654 -53 -1323 -509 -1801
-371 -389 -846 -605 -1381 -629 -730 -32 -1424 341 -1807 972 -192 314 -288
661 -288 1037 0 331 61 598 205 893 296 608 883 1027 1561 1114 133 17 399 12
547 -9z m2087 -351 c129 -39 238 -73 243 -76 4 -2 -8 -23 -27 -45 -36 -42 -76
-117 -76 -142 0 -8 -4 -17 -8 -20 -6 -4 -320 277 -392 351 -18 18 -45 25 260
-68z m1240 68 c-8 -8 -85 -78 -170 -157 -85 -79 -169 -157 -187 -174 -30 -27
-33 -28 -39 -10 -20 59 -55 124 -83 157 -24 26 -29 38 -19 42 44 16 486 153
498 154 13 1 13 -1 0 -12z m-775 -784 c39 -3 87 -1 109 5 36 10 38 10 34 -11
-22 -111 -114 -507 -118 -507 -3 0 -32 120 -66 266 -49 212 -58 264 -45 258 9
-3 48 -9 86 -11z"/>
<path d="M4900 6886 c-826 -119 -1456 -767 -1551 -1596 -14 -127 -7 -380 15
-499 108 -583 469 -1063 992 -1317 506 -245 1092 -241 1597 13 285 142 529
360 700 623 438 676 383 1538 -138 2159 -183 218 -453 408 -735 517 -93 35
-210 67 -335 91 -112 21 -424 26 -545 9z m543 -246 c658 -128 1158 -656 1257
-1325 16 -103 16 -326 0 -434 -66 -472 -348 -895 -758 -1138 -506 -300 -1157
-287 -1649 32 -589 383 -852 1091 -657 1770 137 476 538 889 1013 1045 85 28
256 64 346 74 94 10 343 -3 448 -24z"/>
<path d="M4432 6245 c-217 -47 -391 -223 -437 -442 -18 -86 -18 -140 0 -228
46 -217 225 -401 433 -444 358 -74 692 192 692 551 0 165 -51 291 -165 405
-140 140 -334 199 -523 158z"/>
<path d="M5870 4679 c-112 -23 -208 -99 -258 -207 -23 -49 -27 -70 -27 -147 0
-82 3 -97 33 -157 100 -205 356 -267 537 -130 263 198 144 613 -185 645 -30 3
-75 2 -100 -4z"/>
</g>
</svg>
