<?xml version="1.0" encoding="UTF-8" standalone="no"?>
<svg
   xmlns:dc="http://purl.org/dc/elements/1.1/"
   xmlns:cc="http://creativecommons.org/ns#"
   xmlns:rdf="http://www.w3.org/1999/02/22-rdf-syntax-ns#"
   xmlns:svg="http://www.w3.org/2000/svg"
   xmlns="http://www.w3.org/2000/svg"
   xmlns:sodipodi="http://sodipodi.sourceforge.net/DTD/sodipodi-0.dtd"
   xmlns:inkscape="http://www.inkscape.org/namespaces/inkscape"
   width="512"
   height="512"
   viewBox="0 0 479.99999 479.99999"
   id="svg4144"
   version="1.1"
   inkscape:version="1.0.1 (3bc2e813f5, 2020-09-07)"
   sodipodi:docname="Shots-Logo.svg"
   inkscape:export-filename="C:\Users\mukho\OneDrive\Pictures\Profile Logos\BGS-Logo.png"
   inkscape:export-xdpi="96"
   inkscape:export-ydpi="96">
  <defs
     id="defs4146">
    <rect
       x="510.93749"
       y="112.49997"
       width="288.74999"
       height="127.50002"
       id="rect897" />
    <rect
       x="610.31247"
       y="189.37499"
       width="124.68749"
       height="30.9375"
       id="rect925" />
    <rect
       x="518.125"
       y="578.81287"
       width="168.74999"
       height="125.25657"
       id="rect915" />
  </defs>
  <sodipodi:namedview
     id="base"
     pagecolor="#ffffff"
     bordercolor="#666666"
     borderopacity="1.0"
     inkscape:pageopacity="0.0"
     inkscape:pageshadow="2"
     inkscape:zoom="1.4142136"
     inkscape:cx="240.66052"
     inkscape:cy="248.30267"
     inkscape:document-units="px"
     inkscape:current-layer="layer4"
     showgrid="false"
     showguides="true"
     inkscape:guide-bbox="true"
     inkscape:snap-bbox="false"
     inkscape:bbox-paths="true"
     inkscape:bbox-nodes="false"
     inkscape:snap-bbox-edge-midpoints="false"
     inkscape:snap-bbox-midpoints="false"
     inkscape:object-paths="true"
     inkscape:snap-intersection-paths="true"
     inkscape:object-nodes="true"
     inkscape:snap-midpoints="false"
     inkscape:snap-smooth-nodes="false"
     inkscape:snap-object-midpoints="true"
     inkscape:snap-center="true"
     inkscape:snap-page="true"
     inkscape:window-width="1920"
     inkscape:window-height="1017"
     inkscape:window-x="1912"
     inkscape:window-y="-8"
     inkscape:window-maximized="1"
     inkscape:snap-global="true"
     fit-margin-top="0"
     fit-margin-left="0"
     fit-margin-right="0"
     fit-margin-bottom="0"
     inkscape:document-rotation="0"
     inkscape:pagecheckerboard="true"
     units="px"
     inkscape:snap-others="false"
     inkscape:snap-nodes="true">
    <sodipodi:guide
       position="15,505.31249"
       orientation="-1,0"
       id="guide1591"
       inkscape:label=""
       inkscape:locked="false"
       inkscape:color="rgb(0,0,255)" />
    <sodipodi:guide
       position="464.99999,446.24999"
       orientation="-1,0"
       id="guide1593"
       inkscape:label=""
       inkscape:locked="false"
       inkscape:color="rgb(0,0,255)" />
    <sodipodi:guide
       position="-209.99999,464.99999"
       orientation="0,1"
       id="guide1595"
       inkscape:label=""
       inkscape:locked="false"
       inkscape:color="rgb(0,0,255)" />
    <sodipodi:guide
       position="-41.249998,15"
       orientation="0,1"
       id="guide1597"
       inkscape:label=""
       inkscape:locked="false"
       inkscape:color="rgb(0,0,255)" />
    <sodipodi:guide
       position="239.99999,479.99999"
       orientation="1,0"
       id="guide1599" />
    <sodipodi:guide
       position="747.76541,240.02563"
       orientation="0,-1"
       id="guide1601" />
    <sodipodi:guide
       position="-13.258252,300.01923"
       orientation="1,0"
       id="guide3067" />
    <sodipodi:guide
       position="71.249999,305.98544"
       orientation="-1,0"
       id="guide3069"
       inkscape:label=""
       inkscape:locked="false"
       inkscape:color="rgb(0,0,255)" />
    <sodipodi:guide
       position="239.99999,213.75"
       orientation="0,-1"
       id="guide3899" />
    <sodipodi:guide
       position="294.37499,294.375"
       orientation="0.70710678,-0.70710678"
       id="guide3901" />
    <sodipodi:guide
       position="266.24999,240"
       orientation="0.70710678,-0.70710678"
       id="guide3903" />
    <sodipodi:guide
       position="384.42023,371.29563"
       orientation="0.70710678,-0.70710678"
       id="guide3905" />
    <sodipodi:guide
       position="152.16672,327.83328"
       orientation="-0.70710678,-0.70710678"
       id="guide3907" />
    <sodipodi:guide
       position="177.18749,276.5625"
       orientation="-0.70710678,-0.70710678"
       id="guide3909" />
    <sodipodi:guide
       position="134.41775,332.45762"
       orientation="-0.70710678,-0.70710678"
       id="guide3911" />
    <sodipodi:guide
       position="379.34723,353.09724"
       orientation="-0.70710678,-0.70710678"
       id="guide3913" />
    <sodipodi:guide
       position="152.16672,327.83328"
       orientation="0.70710678,-0.70710678"
       id="guide3915" />
    <sodipodi:guide
       position="-111.56249,355.3125"
       orientation="1,0"
       id="guide4511" />
    <sodipodi:guide
       position="90,240"
       orientation="1,0"
       id="guide4513" />
    <sodipodi:guide
       position="155.625,367.50002"
       orientation="1,0"
       id="guide4515" />
    <sodipodi:guide
       position="174.375,367.50002"
       orientation="1,0"
       id="guide4517" />
    <sodipodi:guide
       position="198.75,133.12502"
       orientation="1,0"
       id="guide4519" />
    <sodipodi:guide
       position="217.5,133.12502"
       orientation="1,0"
       id="guide4521" />
    <sodipodi:guide
       position="262.5,367.50002"
       orientation="1,0"
       id="guide4523" />
    <sodipodi:guide
       position="281.24999,367.50002"
       orientation="1,0"
       id="guide4525" />
    <sodipodi:guide
       position="174.375,133.12502"
       orientation="0,-1"
       id="guide4527" />
    <sodipodi:guide
       position="174.375,367.50002"
       orientation="0,-1"
       id="guide4529" />
    <sodipodi:guide
       position="426.09373,452.34374"
       orientation="0,-1"
       id="guide5133" />
    <sodipodi:guide
       position="239.99999,313.90648"
       orientation="0,-1"
       id="guide5135" />
    <sodipodi:guide
       position="324.37499,359.45872"
       orientation="-1,0"
       id="guide911"
       inkscape:label=""
       inkscape:locked="false"
       inkscape:color="rgb(0,0,255)" />
  </sodipodi:namedview>
  <metadata
     id="metadata4149">
    <rdf:RDF>
      <cc:Work
         rdf:about="">
        <dc:format>image/svg+xml</dc:format>
        <dc:type
           rdf:resource="http://purl.org/dc/dcmitype/StillImage" />
        <dc:title />
      </cc:Work>
    </rdf:RDF>
  </metadata>
  <g
     inkscape:label="Main"
     inkscape:groupmode="layer"
     id="layer1"
     style="display:inline"
     transform="translate(-362.5,-412.71936)">
    <path
       style="display:inline;opacity:1;fill:#000000;fill-opacity:1;stroke:none;stroke-width:24;stroke-linecap:butt;stroke-linejoin:miter;stroke-miterlimit:4;stroke-dasharray:none;stroke-opacity:1"
       d="m 602.49999,412.71936 c 118.167,8.9e-4 239.99909,121.833 240,239.99999 -9.1e-4,118.167 -121.833,239.99909 -240,240 -118.16699,-9.1e-4 -239.9991,-121.833 -239.99999,-240 8.9e-4,-118.16699 121.833,-239.9991 239.99999,-239.99999 z"
       id="path4180"
       inkscape:connector-curvature="0"
       sodipodi:nodetypes="ccccc" />
    <path
       style="display:inline;opacity:1;fill:#ff7100;fill-opacity:1;stroke:none;stroke-width:24;stroke-linecap:butt;stroke-linejoin:miter;stroke-miterlimit:4;stroke-dasharray:none;stroke-opacity:1"
       d="m 602.49999,412.71936 c -132.54832,2e-5 -239.99997,107.45167 -239.99999,239.99999 2e-5,132.54833 107.45167,239.99998 239.99999,240 132.54833,-2e-5 239.99998,-107.45167 240,-240 -2e-5,-132.54832 -107.45167,-239.99997 -240,-239.99999 z m 0,15 c 118.167,0 225,106.833 225,224.99999 0,118.167 -106.833,225 -225,225 -118.167,0 -224.99999,-106.833 -224.99999,-225 0,-118.16699 106.833,-224.99999 224.99999,-224.99999 z"
       id="path934"
       inkscape:connector-curvature="0"
       sodipodi:nodetypes="ssssssssss" />
    <text
       xml:space="preserve"
       id="text913"
       style="font-style:normal;font-weight:normal;font-size:90px;line-height:0;font-family:sans-serif;letter-spacing:0.975px;white-space:pre;shape-inside:url(#rect915);fill:#ff7100;fill-opacity:1;stroke:#ff7100;stroke-width:1.00031;stroke-miterlimit:4;stroke-dasharray:none;stroke-opacity:1;"
       x="78.90625"
       y="0" />
  </g>
  <g
     inkscape:groupmode="layer"
     id="layer4"
     inkscape:label="EliteShots"
     style="display:inline"
     sodipodi:insensitive="true">
    <g
       id="g2358"
       transform="translate(-297.62197,116.04395)">
      <path
         style="display:inline;fill:#ff7100;fill-opacity:1;fill-rule:evenodd;stroke:#000000;stroke-width:0;stroke-linecap:butt;stroke-linejoin:miter;stroke-miterlimit:4;stroke-dasharray:none;stroke-opacity:1"
         d="M 480.77055,-28.667218 459.03227,16.653218 H 360.86215 V 230.19264 H 537.62121 714.38205 V 16.653218 h -98.17022 l -21.73828,-45.320436 h -56.85234 z m 27.5281,8.236087 h 58.6469 v 20.0225813 h -58.6469 z m 164.10281,41.771848 6.54965,28.546144 h -0.0403 a 15.11445,15.445424 0 0 1 8.60231,13.917843 15.11445,15.445424 0 0 1 -0.0581,1.195678 l 0.015,-0.02559 21.7034,20.061029 -28.08281,-8.59498 0.0216,-0.0403 a 15.11445,15.445424 0 0 1 -8.71397,2.84912 15.11445,15.445424 0 0 1 -8.80921,-2.90955 l 0.0169,0.0275 -27.98034,8.66821 21.7035,-20.04821 0.009,0.0094 a 15.11445,15.445424 0 0 1 -0.0497,-1.192013 15.11445,15.445424 0 0 1 8.71031,-13.972781 h -0.0403 z m -134.78025,7.893676 c 52.31353,4.31e-4 94.72368,42.408588 94.72406,94.722287 -3.8e-4,52.31346 -42.41053,94.72187 -94.72406,94.72229 -52.31372,-4.2e-4 -94.722,-42.40883 -94.72228,-94.72229 2.8e-4,-52.313699 42.40856,-94.721856 94.72228,-94.722287 z M 709.25692,42.47658 689.12814,61.233901 c -0.63703,-4.1697 -2.79647,-7.954659 -6.06262,-10.623778 z m -73.64503,0.03478 26.3086,8.052975 c -3.2926,2.636474 -5.49038,6.400209 -6.16885,10.563355 z m 30.672,36.950681 c 3.92953,1.53317 8.28863,1.55629 12.23325,0.0622 l -6.05165,26.748049 z"
         id="path5057-1"
         inkscape:connector-curvature="0" />
      <path
         style="display:inline;fill:#ff7100;fill-opacity:1;fill-rule:evenodd;stroke:#000000;stroke-width:0;stroke-linecap:butt;stroke-linejoin:miter;stroke-miterlimit:4;stroke-dasharray:none;stroke-opacity:1"
         d="m 537.62205,39.520492 a 84.434304,84.434304 0 0 0 -84.43565,84.435658 84.434304,84.434304 0 0 0 84.43565,84.43543 84.434304,84.434304 0 0 0 84.43547,-84.43543 84.434304,84.434304 0 0 0 -84.43547,-84.435658 z m 0,10.529072 a 73.908418,73.908418 0 0 1 73.90659,73.906586 73.908418,73.908418 0 0 1 -73.90659,73.91073 73.908418,73.908418 0 0 1 -73.90659,-73.91073 73.908418,73.908418 0 0 1 73.90659,-73.906586 z"
         id="path5096-4"
         inkscape:connector-curvature="0" />
      <circle
         style="display:inline;fill:#ff7100;fill-opacity:1;fill-rule:evenodd;stroke:#000000;stroke-width:0;stroke-linecap:butt;stroke-linejoin:miter;stroke-miterlimit:4;stroke-dasharray:none;stroke-opacity:1"
         id="path5103-7"
         cx="509.94592"
         cy="96.279892"
         r="26.589291" />
      <circle
         style="display:inline;fill:#ff7100;fill-opacity:1;fill-rule:evenodd;stroke:#000000;stroke-width:0;stroke-linecap:butt;stroke-linejoin:miter;stroke-miterlimit:4;stroke-dasharray:none;stroke-opacity:1"
         id="path5105-1"
         cx="574.96332"
         cy="160.13322"
         r="16.768721" />
    </g>
  </g>
</svg>
