<?xml version="1.0" standalone="no"?>
<!DOCTYPE svg PUBLIC "-//W3C//DTD SVG 20010904//EN"
 "http://www.w3.org/TR/2001/REC-SVG-20010904/DTD/svg10.dtd">
<svg version="1.0" xmlns="http://www.w3.org/2000/svg"
 width="700.000000pt" height="700.000000pt" viewBox="0 0 700.000000 700.000000"
 preserveAspectRatio="xMidYMid meet">
<metadata>
Created by potrace 1.14, written by Peter Selinger 2001-2017
</metadata>
<g transform="translate(0.000000,700.000000) scale(0.100000,-0.100000)"
fill="#000000" stroke="none">
<path d="M3368 6993 c12 -2 30 -2 40 0 9 3 -1 5 -23 4 -22 0 -30 -2 -17 -4z"/>
<path d="M3448 6993 c7 -3 16 -2 19 1 4 3 -2 6 -13 5 -11 0 -14 -3 -6 -6z"/>
<path d="M3538 6993 c7 -3 16 -2 19 1 4 3 -2 6 -13 5 -11 0 -14 -3 -6 -6z"/>
<path d="M3598 6993 c12 -2 30 -2 40 0 9 3 -1 5 -23 4 -22 0 -30 -2 -17 -4z"/>
<path d="M3380 6784 c-1014 -50 -1992 -619 -2599 -1514 -485 -715 -665 -1535
-511 -2334 250 -1294 1372 -2416 2666 -2666 266 -51 625 -68 859 -41 974 115
1847 656 2427 1506 480 703 661 1533 508 2329 -250 1295 -1371 2416 -2666
2666 -206 39 -500 63 -684 54z m1105 -1394 l158 -330 714 0 713 0 0 -1550 0
-1550 -2570 0 -2570 0 0 1550 0 1550 713 0 714 0 158 330 158 330 827 0 827 0
158 -330z"/>
<path d="M3070 5460 l0 -150 430 0 430 0 0 150 0 150 -430 0 -430 0 0 -150z"/>
<path d="M5442 4914 c-80 -355 -73 -330 -104 -349 -42 -24 -87 -99 -94 -158
-7 -47 -10 -51 -160 -190 -85 -78 -154 -145 -154 -148 0 -4 90 22 201 56 l201
63 41 -19 c53 -24 130 -24 183 0 l40 18 190 -58 c104 -33 195 -58 202 -56 7 1
-56 66 -141 144 -151 139 -155 144 -161 191 -7 57 -52 133 -93 157 -27 16 -31
28 -72 213 -25 108 -48 203 -51 211 -5 8 -16 -23 -28 -75z"/>
<path d="M3372 4879 c-239 -22 -495 -117 -683 -255 -80 -59 -215 -189 -280
-270 -346 -433 -388 -1072 -104 -1553 192 -326 506 -559 868 -646 411 -99 860
-2 1181 254 77 62 210 199 263 271 324 444 355 1050 78 1519 -71 121 -131 195
-246 306 -282 272 -681 411 -1077 374z m356 -174 c440 -84 804 -407 940 -835
42 -133 56 -225 56 -370 0 -144 -14 -237 -56 -370 -138 -435 -513 -762 -968
-841 -96 -17 -304 -17 -400 0 -516 90 -921 495 -1011 1011 -17 96 -17 304 0
400 79 455 405 830 841 968 83 26 135 37 275 56 53 8 242 -4 323 -19z"/>
<path d="M3307 4565 c-416 -79 -744 -384 -854 -793 -24 -87 -27 -115 -27 -272
0 -157 3 -185 26 -271 103 -380 397 -674 777 -777 86 -23 114 -26 271 -26 157
0 185 3 271 26 380 103 674 397 777 777 23 86 26 114 26 271 0 157 -3 185 -27
272 -102 380 -398 677 -775 775 -124 32 -344 41 -465 18z m-76 -305 c101 -38
172 -108 221 -215 30 -67 32 -196 4 -272 -97 -260 -433 -335 -628 -140 -147
148 -152 375 -11 527 110 119 266 157 414 100z m890 -1062 c93 -27 159 -121
159 -224 0 -249 -325 -333 -444 -114 -53 98 -32 217 52 290 65 58 146 75 233
48z"/>
<path d="M4930 4686 c0 -2 66 -66 147 -142 l147 -136 9 32 c9 36 30 73 61 107
10 13 18 25 15 27 -3 3 -255 81 -361 112 -10 3 -18 3 -18 0z"/>
<path d="M5805 4633 c-99 -31 -182 -58 -184 -59 -1 -2 11 -20 28 -41 17 -21
37 -56 44 -78 8 -22 16 -40 19 -40 8 0 286 259 287 268 1 10 2 11 -194 -50z"/>
<path d="M5375 4130 c3 -8 23 -94 45 -190 23 -96 43 -176 45 -178 5 -5 17 40
55 213 17 77 33 147 36 155 3 13 -12 15 -91 15 -80 0 -94 -2 -90 -15z"/>
<path d="M3 3605 c0 -27 2 -38 4 -22 2 15 2 37 0 50 -2 12 -4 0 -4 -28z"/>
<path d="M6993 3595 c0 -27 2 -38 4 -22 2 15 2 37 0 50 -2 12 -4 0 -4 -28z"/>
<path d="M6993 3405 c0 -27 2 -38 4 -22 2 15 2 37 0 50 -2 12 -4 0 -4 -28z"/>
<path d="M3 3395 c0 -27 2 -38 4 -22 2 15 2 37 0 50 -2 12 -4 0 -4 -28z"/>
<path d="M3378 3 c12 -2 30 -2 40 0 9 3 -1 5 -23 4 -22 0 -30 -2 -17 -4z"/>
<path d="M3448 3 c7 -3 16 -2 19 1 4 3 -2 6 -13 5 -11 0 -14 -3 -6 -6z"/>
<path d="M3538 3 c7 -3 16 -2 19 1 4 3 -2 6 -13 5 -11 0 -14 -3 -6 -6z"/>
<path d="M3588 3 c12 -2 30 -2 40 0 9 3 -1 5 -23 4 -22 0 -30 -2 -17 -4z"/>
</g>
</svg>
