<?xml version="1.0" encoding="UTF-8" standalone="no"?>
<!-- Created with Inkscape (http://www.inkscape.org/) -->

<svg
   xmlns:dc="http://purl.org/dc/elements/1.1/"
   xmlns:cc="http://creativecommons.org/ns#"
   xmlns:rdf="http://www.w3.org/1999/02/22-rdf-syntax-ns#"
   xmlns:svg="http://www.w3.org/2000/svg"
   xmlns="http://www.w3.org/2000/svg"
   xmlns:sodipodi="http://sodipodi.sourceforge.net/DTD/sodipodi-0.dtd"
   xmlns:inkscape="http://www.inkscape.org/namespaces/inkscape"
   width="81.490784mm"
   height="81.490784mm"
   viewBox="0 0 81.490775 81.490784"
   version="1.1"
   id="svg8"
   inkscape:version="0.92.4 (5da689c313, 2019-01-14)"
   sodipodi:docname="galphoto-logo.svg">
  <defs
     id="defs2" />
  <sodipodi:namedview
     id="base"
     pagecolor="#1c1c1c"
     bordercolor="#666666"
     borderopacity="1.0"
     inkscape:pageopacity="0"
     inkscape:pageshadow="2"
     inkscape:zoom="1.4142136"
     inkscape:cx="81.629786"
     inkscape:cy="169.4389"
     inkscape:document-units="mm"
     inkscape:current-layer="layer1"
     showgrid="false"
     showguides="true"
     inkscape:guide-bbox="true"
     fit-margin-top="0"
     fit-margin-left="0"
     fit-margin-right="0"
     fit-margin-bottom="0"
     units="mm"
     inkscape:snap-bbox="true"
     inkscape:snap-bbox-midpoints="true"
     inkscape:snap-bbox-edge-midpoints="true"
     inkscape:bbox-nodes="true"
     inkscape:bbox-paths="true"
     inkscape:snap-page="true"
     inkscape:window-width="1920"
     inkscape:window-height="1001"
     inkscape:window-x="-9"
     inkscape:window-y="-9"
     inkscape:window-maximized="1" />
  <metadata
     id="metadata5">
    <rdf:RDF>
      <cc:Work
         rdf:about="">
        <dc:format>image/svg+xml</dc:format>
        <dc:type
           rdf:resource="http://purl.org/dc/dcmitype/StillImage" />
        <dc:title></dc:title>
      </cc:Work>
    </rdf:RDF>
  </metadata>
  <g
     inkscape:label="Layer 1"
     inkscape:groupmode="layer"
     id="layer1"
     transform="translate(-3.7705789,-48.492818)">
    <path
       style="fill:#ff6918;fill-opacity:1;stroke:none;stroke-width:0.26499999;stroke-miterlimit:4;stroke-dasharray:none;stroke-opacity:1"
       d="m 38.63639,129.57764 c -5.399329,-0.85372 -11.361738,-3.36136 -15.610418,-6.56537 -4.087728,-3.08262 -8.250843,-8.00184 -10.445319,-12.34237 -1.111279,-2.19804 -2.482141,-6.21785 -3.0717263,-9.0073 -0.851372,-4.028007 -0.733535,-14.042097 0.154915,-14.029177 0.125768,0.002 0.5442323,2.10207 0.9727943,3.38098 1.058641,3.15918 2.306336,5.68841 4.210447,8.53509 10.827437,16.187187 32.855507,20.458607 49.081657,9.517317 2.71976,-1.83393 6.75319,-5.76058 8.71255,-8.48189 1.98449,-2.756207 4.12927,-6.957897 5.03565,-9.864957 0.39012,-1.25128 0.777084,-3.14035 0.888494,-3.14035 0.32652,0 0.529326,2.10471 0.712826,5.62779 0.38463,7.384977 -1.60406,14.540997 -5.86375,21.099907 -1.86593,2.87309 -6.59669,7.65445 -9.48577,9.58725 -7.4019,4.95188 -16.70142,7.04144 -25.29235,5.68308 z M 30.73672,92.428033 C 23.577774,82.092093 15.338535,70.159497 15.246766,69.902857 c -0.09177,-0.25664 3.140917,3.755551 4.364282,4.924261 4.379704,4.184045 8.012325,7.041055 12.484749,9.819115 2.884617,1.79178 7.820658,4.30274 10.265983,5.22228 l 1.74102,0.65469 2.1552,-0.88221 c 7.51553,-3.07641 14.66409,-7.78478 21.5283,-14.179515 1.57557,-1.46781 5.060522,-5.668716 5.057522,-5.548086 -0.0107,0.4285 -28.404292,41.154708 -28.744582,41.230318 -0.20073,0.0446 -5.816601,-7.82104 -13.36252,-18.715677 z m 12.59391,-4.8185 C 42.14682,86.027433 26.104521,63.039394 25.787365,62.446784 25.61792,62.130174 23.920493,59.544209 23.99468,59.544209 c 0.07419,0 3.174382,3.599489 4.374019,4.690389 3.903519,3.54968 8.609775,6.63993 13.136491,8.62576 l 2.47193,1.0844 2.35471,-0.98743 c 4.49115,-1.88332 9.53319,-5.20086 13.68152,-9.00209 1.06154,-0.97272 3.961557,-4.359033 4.029247,-4.291353 0.11645,0.11645 -19.000167,27.722028 -19.713537,28.474818 -0.27864,0.29402 -0.45071,0.20282 -0.99843,-0.52917 z M 38.967132,63.195848 c -2.65575,-3.84272 -6.539538,-9.379789 -6.636982,-9.646369 -0.164745,-0.45071 0.39674,0.193193 0.82767,0.670415 3.312052,3.349823 6.999099,5.888434 9.4124,6.869274 l 1.44932,0.58904 1.31697,-0.51909 c 1.88854,-0.7444 4.50437,-2.35355 6.78791,-4.175653 1.08826,-0.86835 3.62136,-3.701279 3.67832,-3.644319 0.11151,0.11152 -2.47073,3.759569 -7.59162,11.160972 -3.37575,4.87909 -3.98363,5.69078 -4.25792,5.68553 -0.0866,-0.002 -2.33032,-3.14707 -4.986068,-6.98979 z m -1.293889,-6.015094 c 0.355383,-0.92611 6.093787,-8.687939 6.397567,-8.687939 0.33265,0 6.397416,8.252662 6.397416,8.719842 0,0.15173 -2.306586,-2.116662 -3.276416,-2.767092 -0.96984,-0.65044 -2.351646,-1.502247 -2.818046,-1.589747 -0.92137,-0.17285 -2.022444,0.623857 -4.128818,2.066937 -0.868638,0.59511 -2.703233,2.600759 -2.571703,2.257999 z"
       id="path830"
       inkscape:connector-curvature="0"
       sodipodi:nodetypes="scsscsssscscsssscccccssccscssccccscccccccccccscccssscccs" />
  </g>
</svg>
